<svg fill="none" height="153" viewBox="0 0 360 153" width="360" xmlns="http://www.w3.org/2000/svg"><g fill="#fff"><path d="m354 97.096h-346.60468v53.025h346.60468z"/><path d="m0 0h58.186c21.3688 0 28.9834 11.3667 28.9834 26.2432 0 13.002-6.6179 26.2433-27.7674 26.2433h-33.1694v26.2233h-26.2326zm26.2326 36.1742h23.3621c7.2558 0 10.4651-2.9913 10.4651-9.9708 0-6.9796-3.2093-9.9709-10.4651-9.9709h-23.3621z"/><path d="m92.8306 0h63.0294c19.296 0 26.333 8.83416 26.333 21.9358 0 10.4694-5.502 16.1927-12.558 17.9475v.1995c4.943 1.6751 8.81 5.6434 9.468 14.1187 1.216 15.5345 1.654 20.5 4.963 24.4684h-28.764c-1.214-3.7291-1.734-7.6493-1.535-11.5662 0-12.3439-3.986-14.5375-10.684-14.5375h-23.92v26.1436h-26.3324zm26.2324 34.8381h25.236c6.379 0 9.787-3.3103 9.787-8.6946 0-5.3842-3.408-8.4951-9.787-8.4951h-25.236z"/><path clip-rule="evenodd" d="m182.113 0h28.764l20.053 56.1159h.299l20.053-56.1159h28.765l-35.123 78.7098h-27.768z" fill-rule="evenodd"/><path d="m294.04 0h32.073l33.887 78.7098h-28.146l-4.824-12.7826h-34.306l-4.744 12.7826h-28.086zm15.947 19.9417h-.22l-10.903 29.7729h21.927z"/></g><g fill="#d62028"><path clip-rule="evenodd" d="m38.7508 110.457h-12.4186v10.489h12.4186c3.9867 0 5.5615-1.515 5.5615-5.264s-1.6346-5.225-5.5615-5.225z" fill-rule="evenodd"/><path d="m0 90.6548v61.4002h359.94v-61.4002zm43.9734 38.9662h-17.6412v13.959h-13.9535v-41.878h30.9369c11.3821 0 15.4087 5.983 15.4087 13.96 0 6.999-3.5084 13.959-14.7509 13.959zm99.3486 13.959h-39.428v-41.878h13.953v32.206h25.475zm98.213-14.737c0 11.566-8.671 16.073-23.502 16.073-14.83 0-23.501-4.567-23.501-16.073v-27.141h13.953v24.888c0 6.8 3.169 8.973 9.548 8.973s9.548-2.173 9.548-8.973v-24.888h13.954zm80.571 15.953c-14.172 0-24.498-2.512-25.256-14.198h16.525c.299 3.171 2.173 5.165 9.369 5.165 3.528 0 7.336-.818 7.336-4.387 0-2.174-1.754-2.992-6.638-3.749l-13.954-2.114c-8.611-1.237-11.96-5.584-11.96-11.846 0-5.464 3.409-13.321 21.748-13.321 15.229 0 24.259 3.71 25.196 13.561h-15.827c-.459-2.872-2.632-4.886-9.07-4.886-4.705 0-7.276 1.356-7.276 4.108 0 1.356 1.056 2.234 3.11 2.592 3.448.639 14.232 2.214 18.338 2.872 7.795 1.336 12.479 4.567 12.479 11.965.02 14.318-18.379 14.318-24.12 14.318z"/></g></svg>