<svg fill="none" height="24" viewBox="0 0 24 24" width="24" xmlns="http://www.w3.org/2000/svg" xmlns:xlink="http://www.w3.org/1999/xlink"><linearGradient id="a" gradientUnits="userSpaceOnUse" x1="15.9101" x2="23.4179" y1="-2.50204" y2="26.5393"><stop offset="0" stop-color="#4e60d3"/><stop offset=".142763" stop-color="#913baf"/><stop offset=".761458" stop-color="#d52d88"/><stop offset="1" stop-color="#f26d4f"/></linearGradient><radialGradient id="b" cx="0" cy="0" gradientTransform="matrix(-1.51132482 17.84622031 -18.08426823 -1.53148414 5.18039 23.3042)" gradientUnits="userSpaceOnUse" r="1"><stop offset="0" stop-color="#fed276"/><stop offset=".421875" stop-color="#f6804d"/><stop offset="1" stop-color="#f00" stop-opacity="0"/></radialGradient><mask id="c" height="24" maskUnits="userSpaceOnUse" width="24" x="0" y="0"><path d="m11.9062 23.8125c6.5757 0 11.9063-5.3306 11.9063-11.9063 0-6.57559-5.3306-11.9062-11.9063-11.9062-6.57559 0-11.9062 5.33061-11.9062 11.9062 0 6.5757 5.33061 11.9063 11.9062 11.9063z" fill="#fff"/></mask><g mask="url(#c)"><path d="m11.9062 23.8125c6.5757 0 11.9063-5.3306 11.9063-11.9063 0-6.57559-5.3306-11.9062-11.9063-11.9062-6.57559 0-11.9062 5.33061-11.9062 11.9062 0 6.5757 5.33061 11.9063 11.9062 11.9063z" fill="url(#a)"/><circle cx="3.66907" cy="21.9191" fill="url(#b)" r="21.9191"/></g><g fill="#fff"><path d="m12 6.79002c1.7 0 1.9.01 2.57.04.62.03.96.13 1.18.22.3.12.51.25.73.48.22.22.36.43.48.73.09.22.19.56.22 1.18.03.66998.04.86998.04 2.56998s-.01 1.9-.04 2.57c-.03.62-.13.96-.22 1.18-.12.3-.25.51-.48.73-.22.22-.43.36-.73.48-.22.09-.56.19-1.18.22-.67.01-.87.02-2.57.02s-1.9-.01-2.57001-.04c-.62-.03-.96-.13-1.18-.22-.3-.12-.51-.25-.73-.48-.22-.22-.36-.43-.48-.73-.09-.22-.19-.56-.22-1.18-.02-.66-.03-.86-.03-2.56s.01-1.9.04-2.56998c.03-.62.13-.96.22-1.18.12-.3.25-.51.48-.73.22-.22.43-.36.72-.47.22-.09.56-.19 1.18-.22.67001-.03.87001-.04 2.57001-.04zm0-1.14c-1.73 0-1.94.01-2.62001.04-.68.03-1.14.13-1.54.29-.42.16-.77.38-1.13.73-.35.36-.57.71-.73 1.13-.16.4-.26.87-.3 1.54-.03.67998-.03.88998-.03 2.61998s.01 1.94.04 2.62.14 1.14.3 1.54c.16.42.38.77.73 1.13.35.35.71.57 1.13.73.4.16.87.26 1.54.3.68001.03.89001.04 2.62001.04s1.94-.01 2.62-.04 1.14-.14 1.54-.3c.42-.16.77-.38 1.13-.73.35-.35.57-.71.73-1.13.16-.4.26-.87.3-1.54.03-.68.04-.89.04-2.62s-.01-1.94-.04-2.61998c-.03-.68-.14-1.14-.3-1.54-.16-.42-.38-.77-.73-1.13-.35-.35-.71-.57-1.13-.73-.4-.16-.87-.26-1.54-.3-.69-.03-.9-.03-2.63-.03z"/><path d="m12 8.73999c-1.8 0-3.25999 1.46001-3.25999 3.26001s1.45999 3.26 3.25999 3.26 3.26-1.46 3.26-3.26-1.46-3.26001-3.26-3.26001zm0 5.38001c-1.17 0-2.11999-.95-2.11999-2.12s.94999-2.12001 2.11999-2.12001 2.12.95001 2.12 2.12001-.95 2.12-2.12 2.12z"/><path d="m15.39 9.60998c.5523 0 1-.44771 1-1 0-.55228-.4477-.99999-1-.99999s-1 .44771-1 .99999c0 .55229.4477 1 1 1z"/></g></svg>