<svg enable-background="new 0 0 24 24" viewBox="0 0 24 24" xmlns="http://www.w3.org/2000/svg"><circle cx="12" cy="12" fill="#1da1f2" r="12"/><path d="m9.8 18.33c5.32 0 8.23-4.41 8.23-8.23 0-.13 0-.25-.01-.37.56-.41 1.06-.92 1.44-1.5-.52.23-1.08.39-1.66.46.6-.36 1.06-.92 1.27-1.6-.56.33-1.18.57-1.84.7-.53-.56-1.28-.91-2.11-.91-1.6 0-2.89 1.3-2.89 2.89 0 .23.03.45.08.66-2.4-.13-4.53-1.28-5.96-3.03-.25.43-.39.92-.39 1.45 0 1 .51 1.89 1.29 2.41-.47-.01-.92-.14-1.31-.36v.04c0 1.4 1 2.57 2.32 2.84-.24.07-.5.1-.76.1-.19 0-.37-.02-.54-.05.37 1.15 1.44 1.99 2.7 2.01-.99.78-2.24 1.24-3.59 1.24-.23 0-.46-.01-.69-.04 1.27.81 2.79 1.29 4.42 1.29" fill="#fff"/></svg>